grf
version=1
nRows=15
nColumns=37
inDegrees=no
endheader
time	ground_force_1_vx	ground_force_1_vy	ground_force_1_vz	ground_force_1_px	ground_force_1_py	ground_force_1_pz	ground_moment_1_mx	ground_moment_1_my	ground_moment_1_mz	ground_force_2_vx	ground_force_2_vy	ground_force_2_vz	ground_force_2_px	ground_force_2_py	ground_force_2_pz	ground_moment_2_mx	ground_moment_2_my	ground_moment_2_mz	ground_force_3_vx	ground_force_3_vy	ground_force_3_vz	ground_force_3_px	ground_force_3_py	ground_force_3_pz	ground_moment_3_mx	ground_moment_3_my	ground_moment_3_mz	ground_force_4_vx	ground_force_4_vy	ground_force_4_vz	ground_force_4_px	ground_force_4_py	ground_force_4_pz	ground_moment_4_mx	ground_moment_4_my	ground_moment_4_mz
      4.70000000	      0.00000000	     -0.00000000	      0.00000000	      0.00000000	      0.00000000	      0.00000000	      0.00000000	      0.00000000	      0.00000000	     -5.00368977	     32.24489594	   -336.96496582	   -401.26095586	  -1091.35468409	      0.00000000	      0.00000000	      0.00000000	   3010.23573641	      1.38928646	    -30.60768903	   -321.25292969	   -386.62331577	   -722.09717053	      0.00000000	      0.00000000	     -0.00000000	  -1292.67475859	      0.00000000	     -0.00000000	      0.00000000	      0.00000000	      0.00000000	      0.00000000	      0.00000000	      0.00000000	      0.00000000
      4.71000000	      0.00000000	     -0.00000000	      0.00000000	      0.00000000	      0.00000000	      0.00000000	      0.00000000	      0.00000000	      0.00000000	     -5.18445110	     31.80932045	   -345.64154053	   -398.86521663	  -1092.66710984	      0.00000000	      0.00000000	      0.00000000	   3460.14929361	      1.28013388	    -29.60788547	   -329.21023560	   -385.72595952	   -723.18878541	      0.00000000	      0.00000000	      0.00000000	  -1490.14555024	      0.00000000	     -0.00000000	      0.00000000	      0.00000000	      0.00000000	      0.00000000	      0.00000000	      0.00000000	      0.00000000
      4.72000000	      0.00000000	     -0.00000000	      0.00000000	      0.00000000	      0.00000000	      0.00000000	      0.00000000	      0.00000000	      0.00000000	     -3.72977805	     31.68923378	   -355.05419922	   -398.46989140	  -1091.85136100	      0.00000000	      0.00000000	      0.00000000	   3726.99728718	      1.67533228	    -28.97963920	   -339.99362183	   -386.10798108	   -722.66530970	      0.00000000	      0.00000000	     -0.00000000	  -1820.91673870	      0.00000000	     -0.00000000	      0.00000000	      0.00000000	      0.00000000	      0.00000000	      0.00000000	      0.00000000	      0.00000000
      4.73000000	      0.00000000	     -0.00000000	      0.00000000	      0.00000000	      0.00000000	      0.00000000	      0.00000000	      0.00000000	      0.00000000	     -1.17010915	     32.09730911	   -363.62750244	   -398.63105679	  -1090.40764590	      0.00000000	      0.00000000	      0.00000000	   3712.81948211	      1.42960570	    -27.51899732	   -351.20623779	   -387.00835656	   -724.33639614	      0.00000000	      0.00000000	      0.00000000	  -1817.05802848	      0.00000000	     -0.00000000	      0.00000000	      0.00000000	      0.00000000	      0.00000000	      0.00000000	      0.00000000	      0.00000000
      4.74000000	      0.00000000	     -0.00000000	      0.00000000	      0.00000000	      0.00000000	      0.00000000	      0.00000000	      0.00000000	      0.00000000	      1.41691792	     30.90736771	   -371.37979126	   -398.15242774	  -1091.56551048	      0.00000000	      0.00000000	      0.00000000	   3783.74169157	      2.71909386	    -26.52730775	   -363.88104248	   -388.00272242	   -723.55101484	      0.00000000	      0.00000000	     -0.00000000	  -2341.48925029	      0.00000000	     -0.00000000	      0.00000000	      0.00000000	      0.00000000	      0.00000000	      0.00000000	      0.00000000	      0.00000000
      4.75000000	      0.00000000	     -0.00000000	      0.00000000	      0.00000000	      0.00000000	      0.00000000	      0.00000000	      0.00000000	      0.00000000	      3.07522130	     29.44455147	   -373.43612671	   -397.35684338	  -1089.66349502	      0.00000000	      0.00000000	      0.00000000	   4070.14092932	      3.28229684	    -25.22334318	   -375.44204712	   -389.26653692	   -724.72171484	      0.00000000	      0.00000000	     -0.00000000	  -2665.41465830	      0.00000000	     -0.00000000	      0.00000000	      0.00000000	      0.00000000	      0.00000000	      0.00000000	      0.00000000	      0.00000000
      4.76000000	      0.00000000	     -0.00000000	      0.00000000	      0.00000000	      0.00000000	      0.00000000	      0.00000000	      0.00000000	      0.00000000	      3.10118055	     26.64553261	   -374.05950928	   -395.69904208	  -1090.02721588	      0.00000000	      0.00000000	      0.00000000	   4246.97501021	      2.68223211	    -24.94835305	   -386.16168213	   -389.45454983	   -724.85834954	      0.00000000	      0.00000000	     -0.00000000	  -2851.25451241	      0.00000000	     -0.00000000	      0.00000000	      0.00000000	      0.00000000	      0.00000000	      0.00000000	      0.00000000	      0.00000000
      4.77000000	      0.00000000	     -0.00000000	      0.00000000	      0.00000000	      0.00000000	      0.00000000	      0.00000000	      0.00000000	      0.00000000	      2.78683639	     25.06296921	   -372.16726685	   -394.49963768	  -1088.89912258	      0.00000000	      0.00000000	      0.00000000	   4298.67736023	      2.13957330	    -24.93812770	   -395.34045410	   -389.02295797	   -723.17751271	      0.00000000	      0.00000000	     -0.00000000	  -3079.85484072	      0.00000000	     -0.00000000	      0.00000000	      0.00000000	      0.00000000	      0.00000000	      0.00000000	      0.00000000	      0.00000000
      4.78000000	      0.00000000	     -0.00000000	      0.00000000	      0.00000000	      0.00000000	      0.00000000	      0.00000000	      0.00000000	      0.00000000	      2.49789429	     23.41643333	   -376.32003784	   -393.28031056	  -1089.87367020	      0.00000000	      0.00000000	      0.00000000	   4630.53519185	      2.17543951	    -25.49336071	   -401.13357544	   -389.70684543	   -726.05440917	      0.00000000	      0.00000000	     -0.00000000	  -3281.56782036	      0.00000000	     -0.00000000	      0.00000000	      0.00000000	      0.00000000	      0.00000000	      0.00000000	      0.00000000	      0.00000000
      4.79000000	      0.00000000	     -0.00000000	      0.00000000	      0.00000000	      0.00000000	      0.00000000	      0.00000000	      0.00000000	      0.00000000	      1.77341151	     21.50200462	   -378.12747192	   -391.96604135	  -1088.07254529	      0.00000000	      0.00000000	      0.00000000	   4909.97134682	      2.89547603	    -25.38016154	   -408.07437134	   -389.05377813	   -725.80003650	      0.00000000	      0.00000000	     -0.00000000	  -3140.30880922	      0.00000000	     -0.00000000	      0.00000000	      0.00000000	      0.00000000	      0.00000000	      0.00000000	      0.00000000	      0.00000000
      4.80000000	      0.00000000	     -0.00000000	      0.00000000	      0.00000000	      0.00000000	      0.00000000	      0.00000000	      0.00000000	      0.00000000	      0.89210510	     19.49555397	   -379.48727417	   -393.69634434	  -1087.41733878	      0.00000000	      0.00000000	      0.00000000	   5049.38101433	      3.88182373	    -25.12606845	   -413.66027832	   -389.17804810	   -725.07756195	      0.00000000	     -0.00000000	     -0.00000000	  -3319.28978033	      0.00000000	     -0.00000000	      0.00000000	      0.00000000	      0.00000000	      0.00000000	      0.00000000	      0.00000000	      0.00000000
      4.81000000	      0.00000000	     -0.00000000	      0.00000000	      0.00000000	      0.00000000	      0.00000000	      0.00000000	      0.00000000	      0.00000000	      0.90480834	     17.60236740	   -382.84704590	   -391.91977637	  -1088.52238047	      0.00000000	      0.00000000	      0.00000000	   5155.37749780	      5.00256566	    -24.16791578	   -419.56228638	   -388.56642350	   -723.88587579	      0.00000000	      0.00000000	     -0.00000000	  -3483.51472608	      0.00000000	     -0.00000000	      0.00000000	      0.00000000	      0.00000000	      0.00000000	      0.00000000	      0.00000000	      0.00000000
      4.82000000	      0.00000000	     -0.00000000	      0.00000000	      0.00000000	      0.00000000	      0.00000000	      0.00000000	      0.00000000	      0.00000000	      0.94829369	     16.35485268	   -385.98666382	   -391.59760282	  -1089.46787072	      0.00000000	      0.00000000	      0.00000000	   5242.48057230	      7.00815011	    -21.67127098	   -421.86068726	   -388.80213870	   -725.73006902	      0.00000000	      0.00000000	     -0.00000000	  -3597.62429702	      0.00000000	     -0.00000000	      0.00000000	      0.00000000	      0.00000000	      0.00000000	      0.00000000	      0.00000000	      0.00000000
      4.83000000	      0.00000000	     -0.00000000	      0.00000000	      0.00000000	      0.00000000	      0.00000000	      0.00000000	      0.00000000	      0.00000000	      2.95501971	     14.49444008	   -384.87844849	   -391.95913666	  -1087.28959085	      0.00000000	      0.00000000	      0.00000000	   5727.37317304	      8.18325441	    -19.93768382	   -425.74984741	   -388.60570573	   -724.69544449	      0.00000000	      0.00000000	     -0.00000000	  -3872.73031367	      0.00000000	     -0.00000000	      0.00000000	      0.00000000	      0.00000000	      0.00000000	      0.00000000	      0.00000000	      0.00000000
      4.84000000	      0.00000000	     -0.00000000	      0.00000000	      0.00000000	      0.00000000	      0.00000000	      0.00000000	      0.00000000	      0.00000000	      4.07023191	     13.88206196	   -386.59960938	   -392.65299916	  -1087.50856072	      0.00000000	      0.00000000	      0.00000000	   5841.37148715	      9.14821845	    -18.47019466	   -429.41567993	   -387.72299023	   -724.57033992	      0.00000000	      0.00000000	     -0.00000000	  -4249.14482700	      0.00000000	     -0.00000000	      0.00000000	      0.00000000	      0.00000000	      0.00000000	      0.00000000	      0.00000000	      0.00000000
